STARTFONT 2.1
FONT -Linotype-Palatino-Bold-R-Normal--14-140-72-72-P-80-ISO8859-1
SIZE 14 72 72
FONTBOUNDINGBOX 16 18 -2 -4

STARTPROPERTIES 21
FOUNDRY "Linotype"
FAMILY_NAME "Palatino"
WEIGHT_NAME "Bold"
SLANT "R"
SETWIDTH_NAME "Normal"
ADD_STYLE_NAME ""
PIXEL_SIZE 14
POINT_SIZE 140
RESOLUTION_X 72
RESOLUTION_Y 72
SPACING "P"
AVERAGE_WIDTH 80
CHARSET_REGISTRY "ISO8859"
CHARSET_ENCODING "1"
FULL_NAME "Palatino-Bold"
QUAD_WIDTH 7
X_HEIGHT 7
WEIGHT 10
DEFAULT_CHAR 32
FONT_DESCENT 4
FONT_ASCENT 14
ENDPROPERTIES

CHARS 190

STARTCHAR space
ENCODING 32
SWIDTH 250 0
DWIDTH 4 0
BBX 1 1 0 0
BITMAP
00
ENDCHAR

STARTCHAR exclam
ENCODING 33
SWIDTH 278 0
DWIDTH 4 0
BBX 2 10 1 0
BITMAP
C0
C0
C0
C0
C0
C0
C0
00
C0
C0
ENDCHAR

STARTCHAR quotedbl
ENCODING 34
SWIDTH 402 0
DWIDTH 6 0
BBX 5 3 0 7
BITMAP
D8
D8
D8
ENDCHAR

STARTCHAR numbersign
ENCODING 35
SWIDTH 500 0
DWIDTH 8 0
BBX 8 10 0 0
BITMAP
1E
1E
1E
7F
3C
3C
FE
78
78
78
ENDCHAR

STARTCHAR dollar
ENCODING 36
SWIDTH 500 0
DWIDTH 7 0
BBX 5 12 1 -1
BITMAP
20
78
A8
A0
E0
F0
78
38
28
A8
F0
20
ENDCHAR

STARTCHAR percent
ENCODING 37
SWIDTH 889 0
DWIDTH 12 0
BBX 10 10 1 0
BITMAP
6300
B200
9600
D400
6C00
0980
1AC0
1240
3340
2180
ENDCHAR

STARTCHAR ampersand
ENCODING 38
SWIDTH 833 0
DWIDTH 12 0
BBX 10 10 1 0
BITMAP
1C00
3C00
3C00
3800
3000
7BC0
DD80
CF00
E700
7FC0
ENDCHAR

STARTCHAR quoteright
ENCODING 39
SWIDTH 278 0
DWIDTH 4 0
BBX 3 3 0 7
BITMAP
60
60
C0
ENDCHAR

STARTCHAR parenleft
ENCODING 40
SWIDTH 333 0
DWIDTH 5 0
BBX 3 12 1 -2
BITMAP
20
40
40
C0
C0
C0
C0
C0
C0
40
40
20
ENDCHAR

STARTCHAR parenright
ENCODING 41
SWIDTH 333 0
DWIDTH 5 0
BBX 3 12 1 -2
BITMAP
80
40
40
60
60
60
60
60
60
40
40
80
ENDCHAR

STARTCHAR asterisk
ENCODING 42
SWIDTH 444 0
DWIDTH 6 0
BBX 6 5 0 5
BITMAP
10
F0
7C
70
D8
ENDCHAR

STARTCHAR plus
ENCODING 43
SWIDTH 606 0
DWIDTH 8 0
BBX 7 7 0 1
BITMAP
10
10
10
FE
10
10
10
ENDCHAR

STARTCHAR comma
ENCODING 44
SWIDTH 250 0
DWIDTH 4 0
BBX 3 3 0 -1
BITMAP
60
60
C0
ENDCHAR

STARTCHAR minus
ENCODING 45
SWIDTH 606 0
DWIDTH 8 0
BBX 7 1 0 4
BITMAP
FE
ENDCHAR

STARTCHAR period
ENCODING 46
SWIDTH 250 0
DWIDTH 4 0
BBX 2 2 1 0
BITMAP
C0
C0
ENDCHAR

STARTCHAR slash
ENCODING 47
SWIDTH 296 0
DWIDTH 4 0
BBX 4 10 0 0
BITMAP
10
10
30
20
20
60
40
C0
80
80
ENDCHAR

STARTCHAR zero
ENCODING 48
SWIDTH 500 0
DWIDTH 7 0
BBX 6 10 0 0
BITMAP
78
DC
CC
CC
CC
CC
CC
CC
EC
78
ENDCHAR

STARTCHAR one
ENCODING 49
SWIDTH 500 0
DWIDTH 7 0
BBX 5 10 0 0
BITMAP
30
70
F0
30
30
30
30
30
30
78
ENDCHAR

STARTCHAR two
ENCODING 50
SWIDTH 500 0
DWIDTH 7 0
BBX 6 10 0 0
BITMAP
78
DC
8C
0C
0C
18
30
60
FC
FC
ENDCHAR

STARTCHAR three
ENCODING 51
SWIDTH 500 0
DWIDTH 7 0
BBX 6 10 0 0
BITMAP
78
DC
8C
18
38
1C
0C
8C
D8
70
ENDCHAR

STARTCHAR four
ENCODING 52
SWIDTH 500 0
DWIDTH 7 0
BBX 6 10 0 0
BITMAP
18
38
38
58
58
98
FC
FC
18
3C
ENDCHAR

STARTCHAR five
ENCODING 53
SWIDTH 500 0
DWIDTH 7 0
BBX 6 10 0 0
BITMAP
7C
7C
40
78
7C
4C
0C
0C
D8
F0
ENDCHAR

STARTCHAR six
ENCODING 54
SWIDTH 500 0
DWIDTH 7 0
BBX 6 10 0 0
BITMAP
18
30
60
78
FC
CC
CC
CC
78
70
ENDCHAR

STARTCHAR seven
ENCODING 55
SWIDTH 500 0
DWIDTH 7 0
BBX 6 10 0 0
BITMAP
FC
FC
8C
18
18
30
30
60
60
E0
ENDCHAR

STARTCHAR eight
ENCODING 56
SWIDTH 500 0
DWIDTH 7 0
BBX 6 10 0 0
BITMAP
78
EC
CC
EC
78
78
CC
CC
DC
78
ENDCHAR

STARTCHAR nine
ENCODING 57
SWIDTH 500 0
DWIDTH 7 0
BBX 6 10 0 0
BITMAP
38
78
CC
CC
CC
FC
78
18
30
60
ENDCHAR

STARTCHAR colon
ENCODING 58
SWIDTH 250 0
DWIDTH 4 0
BBX 2 7 1 0
BITMAP
C0
C0
00
00
00
C0
C0
ENDCHAR

STARTCHAR semicolon
ENCODING 59
SWIDTH 250 0
DWIDTH 4 0
BBX 3 8 0 -1
BITMAP
60
60
00
00
00
60
60
C0
ENDCHAR

STARTCHAR less
ENCODING 60
SWIDTH 606 0
DWIDTH 8 0
BBX 7 7 0 0
BITMAP
06
18
60
80
60
18
06
ENDCHAR

STARTCHAR equal
ENCODING 61
SWIDTH 606 0
DWIDTH 8 0
BBX 7 4 0 2
BITMAP
FE
00
00
FE
ENDCHAR

STARTCHAR greater
ENCODING 62
SWIDTH 606 0
DWIDTH 8 0
BBX 7 7 0 0
BITMAP
C0
30
0C
02
0C
30
C0
ENDCHAR

STARTCHAR question
ENCODING 63
SWIDTH 444 0
DWIDTH 6 0
BBX 5 10 1 0
BITMAP
F0
B8
18
18
30
60
40
00
60
60
ENDCHAR

STARTCHAR at
ENCODING 64
SWIDTH 747 0
DWIDTH 10 0
BBX 10 10 0 0
BITMAP
1F00
2080
4F40
9B40
B640
B680
9B00
C000
6180
3E00
ENDCHAR

STARTCHAR A
ENCODING 65
SWIDTH 778 0
DWIDTH 11 0
BBX 11 10 0 0
BITMAP
0400
0600
0E00
0F00
1300
1380
3F80
21C0
40C0
E1E0
ENDCHAR

STARTCHAR B
ENCODING 66
SWIDTH 667 0
DWIDTH 10 0
BBX 9 10 0 0
BITMAP
FE00
6300
6300
6600
7F00
6380
6180
6180
6300
FE00
ENDCHAR

STARTCHAR C
ENCODING 67
SWIDTH 722 0
DWIDTH 10 0
BBX 9 10 0 0
BITMAP
1F00
3180
6080
C000
C000
C000
C000
E000
7180
3F00
ENDCHAR

STARTCHAR D
ENCODING 68
SWIDTH 833 0
DWIDTH 12 0
BBX 11 10 0 0
BITMAP
FF80
61C0
60E0
6060
6060
6060
6060
60C0
6180
FF00
ENDCHAR

STARTCHAR E
ENCODING 69
SWIDTH 611 0
DWIDTH 9 0
BBX 8 10 0 0
BITMAP
FF
61
60
62
7E
62
60
60
61
FF
ENDCHAR

STARTCHAR F
ENCODING 70
SWIDTH 556 0
DWIDTH 9 0
BBX 8 10 0 0
BITMAP
FF
61
60
62
7E
62
60
60
60
F0
ENDCHAR

STARTCHAR G
ENCODING 71
SWIDTH 833 0
DWIDTH 11 0
BBX 11 10 0 0
BITMAP
1F80
30C0
6040
C000
C000
C3E0
C0C0
E0C0
71C0
3F00
ENDCHAR

STARTCHAR H
ENCODING 72
SWIDTH 833 0
DWIDTH 11 0
BBX 10 10 0 0
BITMAP
F3C0
6180
6180
6180
7F80
6180
6180
6180
6180
F3C0
ENDCHAR

STARTCHAR I
ENCODING 73
SWIDTH 389 0
DWIDTH 5 0
BBX 4 10 0 0
BITMAP
F0
60
60
60
60
60
60
60
60
F0
ENDCHAR

STARTCHAR J
ENCODING 74
SWIDTH 389 0
DWIDTH 6 0
BBX 5 14 0 -4
BITMAP
78
30
30
30
30
30
30
30
30
30
30
30
E0
C0
ENDCHAR

STARTCHAR K
ENCODING 75
SWIDTH 778 0
DWIDTH 10 0
BBX 10 10 0 0
BITMAP
F780
6600
6C00
7800
7800
7C00
6E00
6700
6380
F3C0
ENDCHAR

STARTCHAR L
ENCODING 76
SWIDTH 611 0
DWIDTH 9 0
BBX 8 10 0 0
BITMAP
F0
60
60
60
60
60
60
60
63
FF
ENDCHAR

STARTCHAR M
ENCODING 77
SWIDTH 1000 0
DWIDTH 14 0
BBX 13 10 0 0
BITMAP
E038
7030
7070
5870
58B0
4CB0
4D30
4730
4630
E278
ENDCHAR

STARTCHAR N
ENCODING 78
SWIDTH 833 0
DWIDTH 12 0
BBX 11 10 0 0
BITMAP
E0E0
7040
7840
5C40
4E40
4740
43C0
41C0
40C0
E040
ENDCHAR

STARTCHAR O
ENCODING 79
SWIDTH 833 0
DWIDTH 12 0
BBX 11 10 0 0
BITMAP
1F80
31C0
60E0
C060
C060
C060
C060
E0C0
7180
3F00
ENDCHAR

STARTCHAR P
ENCODING 80
SWIDTH 611 0
DWIDTH 9 0
BBX 8 10 0 0
BITMAP
FE
67
63
63
66
6C
60
60
60
F0
ENDCHAR

STARTCHAR Q
ENCODING 81
SWIDTH 833 0
DWIDTH 12 0
BBX 11 12 0 -2
BITMAP
1F80
31C0
60E0
C060
C060
C060
C060
E0C0
7180
1F00
1F60
33C0
ENDCHAR

STARTCHAR R
ENCODING 82
SWIDTH 722 0
DWIDTH 10 0
BBX 10 10 0 0
BITMAP
FE00
6700
6300
6300
6600
7C00
6E00
6700
6380
F1C0
ENDCHAR

STARTCHAR S
ENCODING 83
SWIDTH 611 0
DWIDTH 8 0
BBX 7 10 0 0
BITMAP
7C
C6
C0
F0
7C
1E
06
82
C6
7C
ENDCHAR

STARTCHAR T
ENCODING 84
SWIDTH 667 0
DWIDTH 9 0
BBX 8 10 0 0
BITMAP
FF
99
18
18
18
18
18
18
18
3C
ENDCHAR

STARTCHAR U
ENCODING 85
SWIDTH 778 0
DWIDTH 11 0
BBX 10 10 0 0
BITMAP
F1C0
6080
6080
6080
6080
6080
6080
6080
3100
1E00
ENDCHAR

STARTCHAR V
ENCODING 86
SWIDTH 778 0
DWIDTH 12 0
BBX 11 10 0 0
BITMAP
F0E0
7040
30C0
3880
1980
1D00
0F00
0E00
0600
0400
ENDCHAR

STARTCHAR W
ENCODING 87
SWIDTH 1000 0
DWIDTH 13 0
BBX 13 10 0 0
BITMAP
F238
6310
6310
67B0
35A0
3DE0
38E0
18E0
1040
1040
ENDCHAR

STARTCHAR X
ENCODING 88
SWIDTH 667 0
DWIDTH 10 0
BBX 9 10 0 0
BITMAP
E380
7300
3600
3C00
1C00
1C00
3E00
3600
6300
E380
ENDCHAR

STARTCHAR Y
ENCODING 89
SWIDTH 667 0
DWIDTH 10 0
BBX 10 10 0 0
BITMAP
E0C0
7180
3B00
1A00
1E00
0C00
0C00
0C00
0C00
1E00
ENDCHAR

STARTCHAR Z
ENCODING 90
SWIDTH 667 0
DWIDTH 9 0
BBX 8 10 0 0
BITMAP
FF
86
0E
0C
1C
38
30
70
E1
FF
ENDCHAR

STARTCHAR bracketleft
ENCODING 91
SWIDTH 333 0
DWIDTH 5 0
BBX 3 11 1 -1
BITMAP
E0
C0
C0
C0
C0
C0
C0
C0
C0
C0
E0
ENDCHAR

STARTCHAR backslash
ENCODING 92
SWIDTH 606 0
DWIDTH 8 0
BBX 6 10 1 0
BITMAP
C0
40
60
20
30
10
18
08
0C
04
ENDCHAR

STARTCHAR bracketright
ENCODING 93
SWIDTH 333 0
DWIDTH 5 0
BBX 3 11 1 -1
BITMAP
E0
60
60
60
60
60
60
60
60
60
E0
ENDCHAR

STARTCHAR asciicircum
ENCODING 94
SWIDTH 606 0
DWIDTH 8 0
BBX 6 6 1 4
BITMAP
30
30
78
78
CC
CC
ENDCHAR

STARTCHAR underscore
ENCODING 95
SWIDTH 500 0
DWIDTH 7 0
BBX 7 1 0 -2
BITMAP
FE
ENDCHAR

STARTCHAR quoteleft
ENCODING 96
SWIDTH 278 0
DWIDTH 4 0
BBX 3 3 0 7
BITMAP
60
C0
C0
ENDCHAR

STARTCHAR a
ENCODING 97
SWIDTH 500 0
DWIDTH 8 0
BBX 7 7 0 0
BITMAP
78
CC
3C
6C
CC
DC
7E
ENDCHAR

STARTCHAR b
ENCODING 98
SWIDTH 611 0
DWIDTH 9 0
BBX 8 10 0 0
BITMAP
E0
60
60
7E
77
63
63
63
76
7C
ENDCHAR

STARTCHAR c
ENCODING 99
SWIDTH 444 0
DWIDTH 7 0
BBX 6 7 0 0
BITMAP
7C
EC
C0
C0
C0
E4
7C
ENDCHAR

STARTCHAR d
ENCODING 100
SWIDTH 611 0
DWIDTH 9 0
BBX 8 10 0 0
BITMAP
0E
06
06
3E
6E
C6
C6
C6
EE
7F
ENDCHAR

STARTCHAR e
ENCODING 101
SWIDTH 500 0
DWIDTH 7 0
BBX 6 7 0 0
BITMAP
78
CC
CC
FC
C0
E4
7C
ENDCHAR

STARTCHAR f
ENCODING 102
SWIDTH 389 0
DWIDTH 5 0
BBX 5 10 0 0
BITMAP
38
60
60
F8
60
60
60
60
60
F0
ENDCHAR

STARTCHAR g
ENCODING 103
SWIDTH 556 0
DWIDTH 8 0
BBX 8 11 0 -4
BITMAP
38
6F
C6
EC
78
E0
7E
E7
C3
E6
7C
ENDCHAR

STARTCHAR h
ENCODING 104
SWIDTH 611 0
DWIDTH 9 0
BBX 8 10 0 0
BITMAP
E0
60
60
6C
7E
66
66
66
66
F7
ENDCHAR

STARTCHAR i
ENCODING 105
SWIDTH 333 0
DWIDTH 5 0
BBX 4 10 0 0
BITMAP
60
60
00
E0
60
60
60
60
60
F0
ENDCHAR

STARTCHAR j
ENCODING 106
SWIDTH 333 0
DWIDTH 4 0
BBX 3 14 0 -4
BITMAP
60
60
00
E0
60
60
60
60
60
60
60
60
60
C0
ENDCHAR

STARTCHAR k
ENCODING 107
SWIDTH 611 0
DWIDTH 9 0
BBX 8 10 0 0
BITMAP
E0
60
60
66
6C
78
78
6C
66
F7
ENDCHAR

STARTCHAR l
ENCODING 108
SWIDTH 333 0
DWIDTH 5 0
BBX 4 10 0 0
BITMAP
E0
60
60
60
60
60
60
60
60
F0
ENDCHAR

STARTCHAR m
ENCODING 109
SWIDTH 889 0
DWIDTH 13 0
BBX 12 7 0 0
BITMAP
EEC0
7FE0
6660
6660
6660
6660
FF70
ENDCHAR

STARTCHAR n
ENCODING 110
SWIDTH 611 0
DWIDTH 9 0
BBX 8 7 0 0
BITMAP
EC
7E
66
66
66
66
F7
ENDCHAR

STARTCHAR o
ENCODING 111
SWIDTH 556 0
DWIDTH 8 0
BBX 7 7 0 0
BITMAP
3C
EE
C6
C6
C6
EE
78
ENDCHAR

STARTCHAR p
ENCODING 112
SWIDTH 611 0
DWIDTH 9 0
BBX 8 11 0 -4
BITMAP
FE
77
63
63
63
76
7C
60
60
60
F0
ENDCHAR

STARTCHAR q
ENCODING 113
SWIDTH 611 0
DWIDTH 8 0
BBX 8 11 0 -4
BITMAP
3E
6E
C6
C6
C6
EE
7E
06
06
06
0F
ENDCHAR

STARTCHAR r
ENCODING 114
SWIDTH 389 0
DWIDTH 6 0
BBX 6 7 0 0
BITMAP
FC
70
60
60
60
60
F0
ENDCHAR

STARTCHAR s
ENCODING 115
SWIDTH 444 0
DWIDTH 6 0
BBX 5 7 0 0
BITMAP
78
D8
E0
70
38
D8
F0
ENDCHAR

STARTCHAR t
ENCODING 116
SWIDTH 333 0
DWIDTH 5 0
BBX 4 9 0 0
BITMAP
60
60
F0
60
60
60
60
60
30
ENDCHAR

STARTCHAR u
ENCODING 117
SWIDTH 611 0
DWIDTH 9 0
BBX 8 7 0 0
BITMAP
EE
66
66
66
66
7E
37
ENDCHAR

STARTCHAR v
ENCODING 118
SWIDTH 556 0
DWIDTH 8 0
BBX 8 7 -1 0
BITMAP
FF
66
66
3C
3C
18
18
ENDCHAR

STARTCHAR w
ENCODING 119
SWIDTH 833 0
DWIDTH 11 0
BBX 12 7 -1 0
BITMAP
F6F0
6660
7760
3FC0
3BC0
1980
1980
ENDCHAR

STARTCHAR x
ENCODING 120
SWIDTH 500 0
DWIDTH 8 0
BBX 7 7 0 0
BITMAP
E6
6C
38
38
38
6C
CE
ENDCHAR

STARTCHAR y
ENCODING 121
SWIDTH 556 0
DWIDTH 8 0
BBX 9 11 -1 -4
BITMAP
F780
6300
7600
3600
3C00
1C00
1800
1800
3000
7000
E000
ENDCHAR

STARTCHAR z
ENCODING 122
SWIDTH 500 0
DWIDTH 7 0
BBX 6 7 0 0
BITMAP
FC
DC
18
30
60
EC
FC
ENDCHAR

STARTCHAR braceleft
ENCODING 123
SWIDTH 310 0
DWIDTH 4 0
BBX 4 11 -1 -1
BITMAP
30
60
60
60
60
C0
60
60
60
60
30
ENDCHAR

STARTCHAR bar
ENCODING 124
SWIDTH 606 0
DWIDTH 8 0
BBX 2 10 3 0
BITMAP
C0
C0
C0
C0
C0
C0
C0
C0
C0
C0
ENDCHAR

STARTCHAR braceright
ENCODING 125
SWIDTH 310 0
DWIDTH 4 0
BBX 4 11 0 -1
BITMAP
C0
60
60
60
60
30
60
60
60
60
C0
ENDCHAR

STARTCHAR asciitilde
ENCODING 126
SWIDTH 606 0
DWIDTH 8 0
BBX 8 2 0 3
BITMAP
7B
DE
ENDCHAR

STARTCHAR exclamdown
ENCODING 161
SWIDTH 278 0
DWIDTH 4 0
BBX 2 11 1 -4
BITMAP
C0
C0
00
C0
C0
C0
C0
C0
C0
C0
C0
ENDCHAR

STARTCHAR cent
ENCODING 162
SWIDTH 500 0
DWIDTH 7 0
BBX 6 9 0 -1
BITMAP
10
7C
D4
D0
D0
D0
F4
78
10
ENDCHAR

STARTCHAR sterling
ENCODING 163
SWIDTH 500 0
DWIDTH 7 0
BBX 6 10 0 0
BITMAP
1C
34
60
60
F8
60
60
40
F4
BC
ENDCHAR

STARTCHAR currency
ENCODING 164
SWIDTH 500 0
DWIDTH 8 0
BBX 7 7 0 1
BITMAP
BA
7C
C6
C6
C6
7C
BA
ENDCHAR

STARTCHAR yen
ENCODING 165
SWIDTH 500 0
DWIDTH 7 0
BBX 8 10 0 0
BITMAP
E3
62
34
34
7E
18
7E
18
18
3C
ENDCHAR

STARTCHAR brokenbar
ENCODING 166
SWIDTH 606 0
DWIDTH 8 0
BBX 2 10 3 0
BITMAP
C0
C0
C0
C0
00
C0
C0
C0
C0
C0
ENDCHAR

STARTCHAR section
ENCODING 167
SWIDTH 500 0
DWIDTH 7 0
BBX 6 13 0 -3
BITMAP
7C
CC
C4
E0
78
9C
CC
E4
78
1C
8C
CC
F8
ENDCHAR

STARTCHAR dieresis
ENCODING 168
SWIDTH 333 0
DWIDTH 5 0
BBX 4 2 0 8
BITMAP
90
90
ENDCHAR

STARTCHAR copyright
ENCODING 169
SWIDTH 747 0
DWIDTH 10 0
BBX 10 10 0 0
BITMAP
1E00
2100
4E80
9240
B040
B040
9A40
4C80
2100
1E00
ENDCHAR

STARTCHAR ordfeminine
ENCODING 170
SWIDTH 438 0
DWIDTH 6 0
BBX 5 7 1 3
BITMAP
70
18
78
D8
78
00
F8
ENDCHAR

STARTCHAR guillemotleft
ENCODING 171
SWIDTH 500 0
DWIDTH 7 0
BBX 7 5 0 1
BITMAP
36
6C
D8
6C
36
ENDCHAR

STARTCHAR logicalnot
ENCODING 172
SWIDTH 606 0
DWIDTH 8 0
BBX 7 4 0 2
BITMAP
FE
02
02
02
ENDCHAR

STARTCHAR hyphen
ENCODING 173
SWIDTH 333 0
DWIDTH 5 0
BBX 4 1 0 3
BITMAP
F0
ENDCHAR

STARTCHAR registered
ENCODING 174
SWIDTH 747 0
DWIDTH 10 0
BBX 10 10 0 0
BITMAP
1E00
2100
7E80
B340
BE40
B640
B340
7980
2100
1E00
ENDCHAR

STARTCHAR macron
ENCODING 175
SWIDTH 333 0
DWIDTH 5 0
BBX 4 1 0 8
BITMAP
F0
ENDCHAR

STARTCHAR degree
ENCODING 176
SWIDTH 400 0
DWIDTH 7 0
BBX 4 3 2 7
BITMAP
60
90
60
ENDCHAR

STARTCHAR plusminus
ENCODING 177
SWIDTH 606 0
DWIDTH 8 0
BBX 7 8 0 0
BITMAP
10
10
10
FE
10
10
10
FE
ENDCHAR

STARTCHAR twosuperior
ENCODING 178
SWIDTH 300 0
DWIDTH 4 0
BBX 4 6 0 4
BITMAP
E0
B0
30
60
F0
F0
ENDCHAR

STARTCHAR threesuperior
ENCODING 179
SWIDTH 300 0
DWIDTH 4 0
BBX 4 6 0 4
BITMAP
E0
B0
60
30
B0
E0
ENDCHAR

STARTCHAR acute
ENCODING 180
SWIDTH 333 0
DWIDTH 5 0
BBX 3 3 1 8
BITMAP
20
60
80
ENDCHAR

STARTCHAR mu
ENCODING 181
SWIDTH 611 0
DWIDTH 8 0
BBX 8 10 0 -3
BITMAP
EE
66
66
66
66
7E
77
40
40
40
ENDCHAR

STARTCHAR paragraph
ENCODING 182
SWIDTH 641 0
DWIDTH 9 0
BBX 7 12 1 -2
BITMAP
7E
D4
D4
D4
D4
74
14
14
14
14
14
3E
ENDCHAR

STARTCHAR periodcentered
ENCODING 183
SWIDTH 250 0
DWIDTH 7 0
BBX 2 2 2 4
BITMAP
C0
C0
ENDCHAR

STARTCHAR cedilla
ENCODING 184
SWIDTH 333 0
DWIDTH 5 0
BBX 4 3 0 -3
BITMAP
60
30
E0
ENDCHAR

STARTCHAR onesuperior
ENCODING 185
SWIDTH 300 0
DWIDTH 4 0
BBX 4 6 0 4
BITMAP
E0
60
60
60
60
F0
ENDCHAR

STARTCHAR ordmasculine
ENCODING 186
SWIDTH 488 0
DWIDTH 7 0
BBX 5 6 1 4
BITMAP
70
D8
D8
70
00
F8
ENDCHAR

STARTCHAR guillemotright
ENCODING 187
SWIDTH 500 0
DWIDTH 7 0
BBX 7 5 0 1
BITMAP
D8
6C
36
6C
D8
ENDCHAR

STARTCHAR onequarter
ENCODING 188
SWIDTH 750 0
DWIDTH 11 0
BBX 10 10 1 0
BITMAP
E180
6300
6200
6600
6D80
FB80
1D80
37C0
2180
63C0
ENDCHAR

STARTCHAR onehalf
ENCODING 189
SWIDTH 750 0
DWIDTH 11 0
BBX 10 10 1 0
BITMAP
E180
6300
6200
6600
6F80
FAC0
18C0
3180
23C0
63C0
ENDCHAR

STARTCHAR threequarters
ENCODING 190
SWIDTH 750 0
DWIDTH 11 0
BBX 10 10 1 0
BITMAP
E180
B300
6200
3600
BD80
EB80
1D80
37C0
2180
63C0
ENDCHAR

STARTCHAR questiondown
ENCODING 191
SWIDTH 444 0
DWIDTH 6 0
BBX 5 10 0 -3
BITMAP
30
30
00
30
30
60
C0
C0
E8
78
ENDCHAR

STARTCHAR Agrave
ENCODING 192
SWIDTH 778 0
DWIDTH 11 0
BBX 11 14 0 0
BITMAP
0800
0C00
0200
0000
0400
0600
0E00
0F00
1300
1380
3F80
21C0
41C0
E3E0
ENDCHAR

STARTCHAR Aacute
ENCODING 193
SWIDTH 778 0
DWIDTH 11 0
BBX 11 14 0 0
BITMAP
0200
0600
0800
0000
0400
0600
0E00
0F00
1300
1380
3F80
21C0
41C0
E3E0
ENDCHAR

STARTCHAR Acircumflex
ENCODING 194
SWIDTH 778 0
DWIDTH 11 0
BBX 11 14 0 0
BITMAP
0400
0E00
1100
0000
0400
0600
0E00
0F00
1300
1380
3F80
21C0
41C0
E3E0
ENDCHAR

STARTCHAR Atilde
ENCODING 195
SWIDTH 778 0
DWIDTH 11 0
BBX 11 13 0 0
BITMAP
0D00
1600
0000
0400
0600
0E00
0F00
1300
1380
3F80
21C0
41C0
E3E0
ENDCHAR

STARTCHAR Adieresis
ENCODING 196
SWIDTH 778 0
DWIDTH 11 0
BBX 11 13 0 0
BITMAP
1200
1200
0000
0400
0600
0E00
0F00
1300
1380
3F80
21C0
41C0
E3E0
ENDCHAR

STARTCHAR Aring
ENCODING 197
SWIDTH 778 0
DWIDTH 11 0
BBX 11 14 0 0
BITMAP
0600
0900
0600
0000
0400
0600
0E00
0F00
1300
1380
3F80
21C0
41C0
E3E0
ENDCHAR

STARTCHAR AE
ENCODING 198
SWIDTH 1000 0
DWIDTH 14 0
BBX 13 10 0 0
BITMAP
0FF8
0708
0B00
0B10
13F0
1310
3F00
2300
4308
E7F8
ENDCHAR

STARTCHAR Ccedilla
ENCODING 199
SWIDTH 722 0
DWIDTH 10 0
BBX 9 13 0 -3
BITMAP
1F00
3180
6080
C000
C000
C000
C000
E000
7180
3F00
0C00
0600
1C00
ENDCHAR

STARTCHAR Egrave
ENCODING 200
SWIDTH 611 0
DWIDTH 9 0
BBX 8 14 0 0
BITMAP
20
30
08
00
FF
61
60
62
7E
62
60
60
61
FF
ENDCHAR

STARTCHAR Eacute
ENCODING 201
SWIDTH 611 0
DWIDTH 9 0
BBX 8 14 0 0
BITMAP
04
0C
10
00
FF
61
60
62
7E
62
60
60
61
FF
ENDCHAR

STARTCHAR Ecircumflex
ENCODING 202
SWIDTH 611 0
DWIDTH 9 0
BBX 8 14 0 0
BITMAP
08
1C
22
00
FF
61
60
62
7E
62
60
60
61
FF
ENDCHAR

STARTCHAR Edieresis
ENCODING 203
SWIDTH 611 0
DWIDTH 9 0
BBX 8 13 0 0
BITMAP
24
24
00
FF
61
60
62
7E
62
60
60
61
FF
ENDCHAR

STARTCHAR Igrave
ENCODING 204
SWIDTH 389 0
DWIDTH 5 0
BBX 4 14 0 0
BITMAP
80
C0
20
00
F0
60
60
60
60
60
60
60
60
F0
ENDCHAR

STARTCHAR Iacute
ENCODING 205
SWIDTH 389 0
DWIDTH 5 0
BBX 4 14 0 0
BITMAP
10
30
40
00
F0
60
60
60
60
60
60
60
60
F0
ENDCHAR

STARTCHAR Icircumflex
ENCODING 206
SWIDTH 389 0
DWIDTH 5 0
BBX 5 14 0 0
BITMAP
20
70
88
00
F0
60
60
60
60
60
60
60
60
F0
ENDCHAR

STARTCHAR Idieresis
ENCODING 207
SWIDTH 389 0
DWIDTH 5 0
BBX 4 13 0 0
BITMAP
90
90
00
F0
60
60
60
60
60
60
60
60
F0
ENDCHAR

STARTCHAR Eth
ENCODING 208
SWIDTH 833 0
DWIDTH 12 0
BBX 11 10 0 0
BITMAP
FF80
61C0
60E0
6060
FC60
6060
6060
60C0
6180
FF00
ENDCHAR

STARTCHAR Ntilde
ENCODING 209
SWIDTH 833 0
DWIDTH 12 0
BBX 11 13 0 0
BITMAP
0D00
1600
0000
E1E0
7040
7840
5C40
4E40
4740
43C0
41C0
40C0
E040
ENDCHAR

STARTCHAR Ograve
ENCODING 210
SWIDTH 833 0
DWIDTH 12 0
BBX 11 14 0 0
BITMAP
0800
0C00
0200
0000
1F80
31C0
60E0
C060
C060
C060
C060
E0C0
7180
3F00
ENDCHAR

STARTCHAR Oacute
ENCODING 211
SWIDTH 833 0
DWIDTH 12 0
BBX 11 14 0 0
BITMAP
0200
0600
0800
0000
1F80
31C0
60E0
C060
C060
C060
C060
E0C0
7180
3F00
ENDCHAR

STARTCHAR Ocircumflex
ENCODING 212
SWIDTH 833 0
DWIDTH 12 0
BBX 11 14 0 0
BITMAP
0400
0E00
1100
0000
1F80
31C0
60E0
C060
C060
C060
C060
E0C0
7180
3F00
ENDCHAR

STARTCHAR Otilde
ENCODING 213
SWIDTH 833 0
DWIDTH 12 0
BBX 11 13 0 0
BITMAP
0D00
1600
0000
1F80
31C0
60E0
C060
C060
C060
C060
E0C0
7180
3F00
ENDCHAR

STARTCHAR Odieresis
ENCODING 214
SWIDTH 833 0
DWIDTH 12 0
BBX 11 13 0 0
BITMAP
0900
0900
0000
1F80
31C0
60E0
C060
C060
C060
C060
E0C0
7180
3F00
ENDCHAR

STARTCHAR multiply
ENCODING 215
SWIDTH 606 0
DWIDTH 8 0
BBX 7 7 0 1
BITMAP
82
44
28
10
28
44
82
ENDCHAR

STARTCHAR Oslash
ENCODING 216
SWIDTH 833 0
DWIDTH 12 0
BBX 11 10 0 0
BITMAP
1FA0
31C0
60E0
C160
C660
C860
D060
E0C0
7180
BF00
ENDCHAR

STARTCHAR Ugrave
ENCODING 217
SWIDTH 778 0
DWIDTH 11 0
BBX 10 14 0 0
BITMAP
1000
1800
0400
0000
F1C0
6080
6080
6080
6080
6080
6080
6080
3100
1E00
ENDCHAR

STARTCHAR Uacute
ENCODING 218
SWIDTH 778 0
DWIDTH 11 0
BBX 10 14 0 0
BITMAP
0200
0600
0800
0000
F1C0
6080
6080
6080
6080
6080
6080
6080
3100
1E00
ENDCHAR

STARTCHAR Ucircumflex
ENCODING 219
SWIDTH 778 0
DWIDTH 11 0
BBX 10 14 0 0
BITMAP
0400
0E00
1100
0000
F1C0
6080
6080
6080
6080
6080
6080
6080
3100
1E00
ENDCHAR

STARTCHAR Udieresis
ENCODING 220
SWIDTH 778 0
DWIDTH 11 0
BBX 10 13 0 0
BITMAP
1200
1200
0000
F1C0
6080
6080
6080
6080
6080
6080
6080
3100
1E00
ENDCHAR

STARTCHAR Yacute
ENCODING 221
SWIDTH 667 0
DWIDTH 10 0
BBX 10 14 0 0
BITMAP
0200
0600
0800
0000
E0C0
7180
3B00
1A00
1E00
0C00
0C00
0C00
0C00
1E00
ENDCHAR

STARTCHAR Thorn
ENCODING 222
SWIDTH 611 0
DWIDTH 9 0
BBX 8 10 0 0
BITMAP
F0
60
7E
67
63
63
63
6E
60
F0
ENDCHAR

STARTCHAR germandbls
ENCODING 223
SWIDTH 611 0
DWIDTH 9 0
BBX 8 10 0 0
BITMAP
1C
26
66
66
E8
6E
67
63
6B
FE
ENDCHAR

STARTCHAR agrave
ENCODING 224
SWIDTH 500 0
DWIDTH 8 0
BBX 7 11 0 0
BITMAP
20
30
08
00
78
CC
3C
6C
CC
DC
7E
ENDCHAR

STARTCHAR aacute
ENCODING 225
SWIDTH 500 0
DWIDTH 8 0
BBX 7 11 0 0
BITMAP
08
18
20
00
78
CC
3C
6C
CC
DC
7E
ENDCHAR

STARTCHAR acircumflex
ENCODING 226
SWIDTH 500 0
DWIDTH 8 0
BBX 7 11 0 0
BITMAP
10
38
44
00
78
CC
3C
6C
CC
DC
7E
ENDCHAR

STARTCHAR atilde
ENCODING 227
SWIDTH 500 0
DWIDTH 8 0
BBX 7 10 0 0
BITMAP
34
58
00
78
CC
3C
6C
CC
DC
7E
ENDCHAR

STARTCHAR adieresis
ENCODING 228
SWIDTH 500 0
DWIDTH 8 0
BBX 7 10 0 0
BITMAP
48
48
00
78
CC
3C
6C
CC
DC
7E
ENDCHAR

STARTCHAR aring
ENCODING 229
SWIDTH 500 0
DWIDTH 8 0
BBX 7 11 0 0
BITMAP
30
48
30
00
78
CC
3C
6C
CC
DC
7E
ENDCHAR

STARTCHAR ae
ENCODING 230
SWIDTH 778 0
DWIDTH 11 0
BBX 10 7 0 0
BITMAP
7B80
CCC0
3CC0
6FC0
CC00
DE40
F7C0
ENDCHAR

STARTCHAR ccedilla
ENCODING 231
SWIDTH 444 0
DWIDTH 7 0
BBX 6 10 0 -3
BITMAP
3C
6C
C0
C0
C0
E4
7C
30
18
70
ENDCHAR

STARTCHAR egrave
ENCODING 232
SWIDTH 500 0
DWIDTH 7 0
BBX 6 11 0 0
BITMAP
40
60
10
00
78
CC
CC
FC
C0
E4
7C
ENDCHAR

STARTCHAR eacute
ENCODING 233
SWIDTH 500 0
DWIDTH 7 0
BBX 6 11 0 0
BITMAP
08
18
20
00
78
CC
CC
FC
C0
E4
7C
ENDCHAR

STARTCHAR ecircumflex
ENCODING 234
SWIDTH 500 0
DWIDTH 7 0
BBX 6 11 0 0
BITMAP
10
38
44
00
78
CC
CC
FC
C0
E4
7C
ENDCHAR

STARTCHAR edieresis
ENCODING 235
SWIDTH 500 0
DWIDTH 7 0
BBX 6 10 0 0
BITMAP
48
48
00
78
CC
CC
FC
C0
E4
7C
ENDCHAR

STARTCHAR igrave
ENCODING 236
SWIDTH 333 0
DWIDTH 5 0
BBX 4 11 0 0
BITMAP
80
C0
20
00
E0
60
60
60
60
60
F0
ENDCHAR

STARTCHAR iacute
ENCODING 237
SWIDTH 333 0
DWIDTH 5 0
BBX 4 11 0 0
BITMAP
10
30
40
00
E0
60
60
60
60
60
F0
ENDCHAR

STARTCHAR icircumflex
ENCODING 238
SWIDTH 333 0
DWIDTH 5 0
BBX 5 11 0 0
BITMAP
20
70
88
00
E0
60
60
60
60
60
F0
ENDCHAR

STARTCHAR idieresis
ENCODING 239
SWIDTH 333 0
DWIDTH 5 0
BBX 4 10 0 0
BITMAP
90
90
00
E0
60
60
60
60
60
F0
ENDCHAR

STARTCHAR eth
ENCODING 240
SWIDTH 556 0
DWIDTH 8 0
BBX 7 10 0 0
BITMAP
6C
30
58
3C
4E
C6
C6
C6
E4
78
ENDCHAR

STARTCHAR ntilde
ENCODING 241
SWIDTH 611 0
DWIDTH 9 0
BBX 8 10 0 0
BITMAP
34
58
00
EC
7E
66
66
66
66
F7
ENDCHAR

STARTCHAR ograve
ENCODING 242
SWIDTH 556 0
DWIDTH 8 0
BBX 7 11 0 0
BITMAP
20
30
08
00
3C
EE
C6
C6
C6
EE
78
ENDCHAR

STARTCHAR oacute
ENCODING 243
SWIDTH 556 0
DWIDTH 8 0
BBX 7 11 0 0
BITMAP
08
18
20
00
3C
EE
C6
C6
C6
EE
78
ENDCHAR

STARTCHAR ocircumflex
ENCODING 244
SWIDTH 556 0
DWIDTH 8 0
BBX 7 11 0 0
BITMAP
10
38
44
00
3C
EE
C6
C6
C6
EE
78
ENDCHAR

STARTCHAR otilde
ENCODING 245
SWIDTH 556 0
DWIDTH 8 0
BBX 7 10 0 0
BITMAP
34
58
00
3C
EE
C6
C6
C6
EE
78
ENDCHAR

STARTCHAR odieresis
ENCODING 246
SWIDTH 556 0
DWIDTH 8 0
BBX 7 10 0 0
BITMAP
48
48
00
3C
EE
C6
C6
C6
EE
78
ENDCHAR

STARTCHAR divide
ENCODING 247
SWIDTH 606 0
DWIDTH 8 0
BBX 7 7 0 1
BITMAP
10
10
00
FE
00
10
10
ENDCHAR

STARTCHAR oslash
ENCODING 248
SWIDTH 556 0
DWIDTH 8 0
BBX 7 7 0 0
BITMAP
3E
EE
CE
D6
E6
EE
F8
ENDCHAR

STARTCHAR ugrave
ENCODING 249
SWIDTH 611 0
DWIDTH 9 0
BBX 8 11 0 0
BITMAP
20
30
08
00
EE
66
66
66
66
7E
37
ENDCHAR

STARTCHAR uacute
ENCODING 250
SWIDTH 611 0
DWIDTH 9 0
BBX 8 11 0 0
BITMAP
04
0C
10
00
EE
66
66
66
66
7E
37
ENDCHAR

STARTCHAR ucircumflex
ENCODING 251
SWIDTH 611 0
DWIDTH 9 0
BBX 8 11 0 0
BITMAP
10
38
44
00
EE
66
66
66
66
7E
37
ENDCHAR

STARTCHAR udieresis
ENCODING 252
SWIDTH 611 0
DWIDTH 9 0
BBX 8 10 0 0
BITMAP
24
24
00
EE
66
66
66
66
7E
37
ENDCHAR

STARTCHAR yacute
ENCODING 253
SWIDTH 556 0
DWIDTH 8 0
BBX 9 15 -1 -4
BITMAP
0400
0C00
1000
0000
F780
6300
7600
3600
3C00
1C00
1800
1800
3000
7000
E000
ENDCHAR

STARTCHAR thorn
ENCODING 254
SWIDTH 611 0
DWIDTH 9 0
BBX 8 14 0 -4
BITMAP
E0
60
60
7E
67
63
63
63
62
7C
60
60
60
F0
ENDCHAR

STARTCHAR ydieresis
ENCODING 255
SWIDTH 556 0
DWIDTH 8 0
BBX 9 14 -1 -4
BITMAP
1200
1200
0000
F780
6300
7600
3600
3C00
1C00
1800
1800
3000
7000
E000
ENDCHAR
ENDFONT
